<?xml version="1.0" standalone="no"?>
<!DOCTYPE svg PUBLIC "-//W3C//DTD SVG 20010904//EN"
 "http://www.w3.org/TR/2001/REC-SVG-20010904/DTD/svg10.dtd">
<svg version="1.0" xmlns="http://www.w3.org/2000/svg"
 width="504.000000pt" height="504.000000pt" viewBox="0 0 504.000000 504.000000"
 preserveAspectRatio="xMidYMid meet">
<metadata>
Created by potrace 1.11, written by Peter Selinger 2001-2013
</metadata>
<g transform="translate(0.000000,504.000000) scale(0.100000,-0.100000)"
fill="#000000" stroke="none">
<path d="M675 5009 c-284 -42 -528 -241 -620 -506 -58 -166 -56 -99 -53 -2023
4 -1911 1 -1807 54 -1948 l17 -44 226 226 c255 255 253 254 315 186 20 -22 36
-48 36 -57 0 -9 -110 -128 -245 -263 l-245 -246 49 -54 50 -55 398 397 c219
219 406 398 416 398 29 0 97 -69 97 -99 0 -21 -74 -100 -386 -412 l-386 -386
60 -26 c33 -15 63 -27 68 -27 5 0 113 104 239 230 180 180 235 230 255 230 31
0 100 -66 100 -96 0 -12 -72 -91 -190 -209 -104 -104 -190 -193 -190 -198 0
-4 816 -6 1813 -5 l1812 3 80 23 c227 63 406 210 505 415 81 169 75 -5 75
2057 0 1716 -1 1839 -18 1903 -58 227 -213 417 -421 517 -172 81 13 74 -2031
76 -1006 1 -1847 -2 -1880 -7z m3234 -343 c259 -65 481 -222 628 -445 68 -102
111 -202 145 -338 18 -72 22 -117 22 -243 1 -171 -15 -254 -74 -408 -88 -228
-318 -465 -546 -560 -123 -52 -114 -55 -114 32 l0 76 64 29 c253 115 450 363
512 644 25 114 21 290 -10 409 -84 328 -336 580 -664 664 -88 23 -111 25 -247
21 -175 -6 -247 -23 -384 -92 -199 -100 -354 -268 -438 -476 l-28 -69 -72 0
c-44 0 -73 4 -73 10 0 22 43 136 75 199 138 274 393 476 686 545 150 36 142
35 284 31 98 -2 155 -10 234 -29z m-74 -351 c145 -40 283 -132 369 -248 71
-95 93 -141 122 -255 32 -124 31 -220 0 -346 -43 -166 -122 -286 -257 -386
-45 -33 -85 -60 -90 -60 -5 0 -9 35 -9 79 l0 78 68 69 c113 116 163 237 163
394 0 156 -51 280 -161 390 -110 110 -232 160 -390 160 -141 0 -244 -36 -351
-123 -30 -25 -73 -70 -94 -101 l-38 -56 -84 0 -83 0 21 43 c64 128 193 253
327 318 138 67 336 85 487 44z m-36 -554 c14 -23 23 -156 16 -238 -49 -570
-384 -1179 -967 -1755 l-159 -158 -342 312 c-367 335 -677 617 -690 628 -9 8
93 137 210 267 87 95 265 257 422 384 379 304 834 517 1211 569 100 13 289 8
299 -9z m-1719 -1702 c272 -248 517 -472 544 -497 l49 -45 -37 -211 c-20 -116
-40 -218 -44 -227 -13 -32 -440 -429 -461 -429 -14 0 -24 12 -35 43 -9 23 -54
146 -100 272 -51 140 -89 229 -96 227 -55 -13 -204 -12 -265 2 l-70 15 -100
-105 c-55 -57 -107 -104 -115 -104 -22 0 -190 158 -190 179 0 9 38 64 85 121
47 57 84 108 81 114 -45 99 -60 150 -64 214 -4 63 -8 75 -26 83 -11 5 -122 38
-246 74 -291 85 -287 84 -294 100 -3 9 67 102 183 243 104 125 195 233 203
239 14 12 457 141 488 142 8 0 238 -202 510 -450z"/>
<path d="M2954 3306 c-89 -28 -168 -105 -200 -193 -7 -21 -13 -70 -14 -109 -1
-267 316 -402 518 -219 73 65 112 184 92 278 -14 71 -64 153 -118 194 -76 58
-187 77 -278 49z"/>
</g>
</svg>
